<svg width="242" height="181" viewBox="0 0 242 181" fill="none" xmlns="http://www.w3.org/2000/svg">
<path d="M185.85 49.2079H58.0013C56.07 49.2079 54.5044 50.7692 54.5044 52.6951V128.305C54.5044 130.231 56.07 131.792 58.0013 131.792H185.85C187.781 131.792 189.347 130.231 189.347 128.305V52.6951C189.347 50.7692 187.781 49.2079 185.85 49.2079Z" fill="#093F68"/>
<path d="M185.844 132.395H58.0013C56.9139 132.394 55.8715 131.962 55.1026 131.196C54.3337 130.429 53.901 129.389 53.8994 128.305V52.6951C53.901 51.6107 54.3337 50.5712 55.1026 49.8044C55.8715 49.0376 56.9139 48.6061 58.0013 48.6045H185.844C186.384 48.6022 186.92 48.7062 187.42 48.9106C187.92 49.115 188.375 49.4159 188.758 49.7959C189.142 50.1759 189.446 50.6276 189.654 51.1251C189.862 51.6226 189.969 52.1561 189.97 52.6951V128.305C189.969 128.844 189.862 129.377 189.654 129.875C189.446 130.372 189.142 130.824 188.758 131.204C188.375 131.584 187.92 131.885 187.42 132.089C186.92 132.294 186.384 132.398 185.844 132.395ZM58.0013 49.8112C57.2348 49.8128 56.5002 50.1172 55.9582 50.6576C55.4162 51.1981 55.111 51.9308 55.1094 52.6951V128.305C55.111 129.069 55.4162 129.802 55.9582 130.342C56.5002 130.883 57.2348 131.187 58.0013 131.189H185.844C186.61 131.187 187.345 130.883 187.887 130.342C188.429 129.802 188.734 129.069 188.736 128.305V52.6951C188.734 51.9308 188.429 51.1981 187.887 50.6576C187.345 50.1172 186.61 49.8128 185.844 49.8112H58.0013Z" fill="#093F68"/>
<path d="M54.5045 61.7753H119.028V131.762H58.1647C57.6832 131.762 57.2065 131.667 56.7617 131.484C56.3169 131.3 55.9127 131.031 55.5722 130.691C55.2318 130.352 54.9617 129.949 54.7775 129.505C54.5932 129.061 54.4984 128.586 54.4984 128.106V61.7391L54.5045 61.7753Z" fill="#68E1FD"/>
<path d="M119.028 132.395H58.1647C57.0382 132.386 55.9611 131.933 55.1679 131.135C54.3747 130.337 53.9296 129.259 53.9297 128.136V61.7693C53.9297 61.6092 53.9934 61.4558 54.1069 61.3426C54.2203 61.2295 54.3742 61.1659 54.5347 61.1659H119.028C119.188 61.1659 119.342 61.2295 119.455 61.3426C119.569 61.4558 119.633 61.6092 119.633 61.7693V131.792C119.633 131.952 119.569 132.106 119.455 132.219C119.342 132.332 119.188 132.395 119.028 132.395ZM55.1094 62.4088V128.172C55.1094 128.976 55.4269 129.747 55.9932 130.318C56.5595 130.89 57.3288 131.215 58.1344 131.225H118.392V62.445L55.1094 62.4088Z" fill="#093F68"/>
<path d="M138.702 69.0334H127.244C127.083 69.0334 126.929 68.9698 126.816 68.8567C126.702 68.7435 126.639 68.5901 126.639 68.4301C126.639 68.27 126.702 68.1166 126.816 68.0034C126.929 67.8903 127.083 67.8267 127.244 67.8267H138.702C138.863 67.8267 139.017 67.8903 139.13 68.0034C139.244 68.1166 139.307 68.27 139.307 68.4301C139.307 68.5901 139.244 68.7435 139.13 68.8567C139.017 68.9698 138.863 69.0334 138.702 69.0334Z" fill="white"/>
<path d="M154.535 76.1769H131.007C130.846 76.1769 130.692 76.1133 130.579 76.0002C130.465 75.887 130.402 75.7336 130.402 75.5735C130.402 75.4135 130.465 75.2601 130.579 75.1469C130.692 75.0338 130.846 74.9702 131.007 74.9702H154.535C154.696 74.9702 154.85 75.0338 154.963 75.1469C155.076 75.2601 155.14 75.4135 155.14 75.5735C155.14 75.7336 155.076 75.887 154.963 76.0002C154.85 76.1133 154.696 76.1769 154.535 76.1769Z" fill="#FFBC0E"/>
<path d="M148.697 83.3203H131.007C130.846 83.3203 130.692 83.2568 130.579 83.1436C130.465 83.0305 130.402 82.877 130.402 82.717C130.402 82.557 130.465 82.4035 130.579 82.2904C130.692 82.1772 130.846 82.1137 131.007 82.1137H148.697C148.857 82.1137 149.011 82.1772 149.125 82.2904C149.238 82.4035 149.302 82.557 149.302 82.717C149.302 82.877 149.238 83.0305 149.125 83.1436C149.011 83.2568 148.857 83.3203 148.697 83.3203Z" fill="#FFBC0E"/>
<path d="M139.362 90.4638H129.204C129.043 90.4638 128.889 90.4002 128.776 90.2871C128.662 90.1739 128.599 90.0205 128.599 89.8605C128.599 89.7005 128.662 89.547 128.776 89.4339C128.889 89.3207 129.043 89.2571 129.204 89.2571H139.362C139.522 89.2571 139.676 89.3207 139.79 89.4339C139.903 89.547 139.967 89.7005 139.967 89.8605C139.967 90.0205 139.903 90.1739 139.79 90.2871C139.676 90.4002 139.522 90.4638 139.362 90.4638Z" fill="white"/>
<path d="M143.385 97.6073H131.938C131.778 97.6073 131.624 97.5437 131.511 97.4306C131.397 97.3174 131.333 97.164 131.333 97.0039C131.333 96.8439 131.397 96.6905 131.511 96.5773C131.624 96.4642 131.778 96.4006 131.938 96.4006H143.385C143.545 96.4006 143.699 96.4642 143.813 96.5773C143.926 96.6905 143.99 96.8439 143.99 97.0039C143.99 97.164 143.926 97.3174 143.813 97.4306C143.699 97.5437 143.545 97.6073 143.385 97.6073Z" fill="#F56132"/>
<path d="M149.241 104.757H131.539C131.379 104.757 131.225 104.693 131.111 104.58C130.998 104.467 130.934 104.313 130.934 104.153C130.934 103.993 130.998 103.84 131.111 103.727C131.225 103.614 131.379 103.55 131.539 103.55H149.241C149.402 103.55 149.556 103.614 149.669 103.727C149.783 103.84 149.846 103.993 149.846 104.153C149.846 104.313 149.783 104.467 149.669 104.58C149.556 104.693 149.402 104.757 149.241 104.757Z" fill="white"/>
<path d="M135.841 111.9H127.244C127.083 111.9 126.929 111.837 126.816 111.724C126.702 111.61 126.639 111.457 126.639 111.297C126.639 111.137 126.702 110.983 126.816 110.87C126.929 110.757 127.083 110.694 127.244 110.694H135.841C136.001 110.694 136.155 110.757 136.268 110.87C136.382 110.983 136.446 111.137 136.446 111.297C136.446 111.457 136.382 111.61 136.268 111.724C136.155 111.837 136.001 111.9 135.841 111.9Z" fill="white"/>
<path d="M149.241 119.044H130.408C130.247 119.044 130.093 118.98 129.98 118.867C129.866 118.754 129.803 118.6 129.803 118.44C129.803 118.28 129.866 118.127 129.98 118.014C130.093 117.901 130.247 117.837 130.408 117.837H149.241C149.402 117.837 149.556 117.901 149.669 118.014C149.783 118.127 149.846 118.28 149.846 118.44C149.846 118.6 149.783 118.754 149.669 118.867C149.556 118.98 149.402 119.044 149.241 119.044Z" fill="#70CC40"/>
<path d="M167.282 119.044H154.916C154.756 119.044 154.602 118.98 154.488 118.867C154.375 118.754 154.311 118.6 154.311 118.44C154.311 118.28 154.375 118.127 154.488 118.014C154.602 117.901 154.756 117.837 154.916 117.837H167.282C167.443 117.837 167.597 117.901 167.71 118.014C167.824 118.127 167.887 118.28 167.887 118.44C167.887 118.6 167.824 118.754 167.71 118.867C167.597 118.98 167.443 119.044 167.282 119.044Z" fill="#FFBC0E"/>
<path d="M163.271 83.3203H154.535C154.375 83.3203 154.221 83.2568 154.107 83.1436C153.994 83.0305 153.93 82.877 153.93 82.717C153.93 82.557 153.994 82.4035 154.107 82.2904C154.221 82.1772 154.375 82.1137 154.535 82.1137H163.271C163.432 82.1137 163.586 82.1772 163.699 82.2904C163.813 82.4035 163.876 82.557 163.876 82.717C163.876 82.877 163.813 83.0305 163.699 83.1436C163.586 83.2568 163.432 83.3203 163.271 83.3203Z" fill="white"/>
<path d="M175.716 76.1769H158.903C158.743 76.1769 158.589 76.1133 158.475 76.0002C158.362 75.887 158.298 75.7336 158.298 75.5735C158.298 75.4135 158.362 75.2601 158.475 75.1469C158.589 75.0338 158.743 74.9702 158.903 74.9702H175.716C175.877 74.9702 176.031 75.0338 176.144 75.1469C176.257 75.2601 176.321 75.4135 176.321 75.5735C176.321 75.7336 176.257 75.887 176.144 76.0002C176.031 76.1133 175.877 76.1769 175.716 76.1769Z" fill="#68E1FD"/>
<path d="M172.933 83.3203H168.021C167.86 83.3203 167.706 83.2568 167.593 83.1436C167.479 83.0305 167.416 82.877 167.416 82.717C167.416 82.557 167.479 82.4035 167.593 82.2904C167.706 82.1772 167.86 82.1137 168.021 82.1137H172.933C173.094 82.1137 173.248 82.1772 173.361 82.2904C173.475 82.4035 173.538 82.557 173.538 82.717C173.538 82.877 173.475 83.0305 173.361 83.1436C173.248 83.2568 173.094 83.3203 172.933 83.3203Z" fill="#F56132"/>
<path d="M151.698 97.6073H146.785C146.625 97.6073 146.471 97.5437 146.357 97.4306C146.244 97.3174 146.18 97.164 146.18 97.0039C146.18 96.8439 146.244 96.6905 146.357 96.5773C146.471 96.4642 146.625 96.4006 146.785 96.4006H151.698C151.858 96.4006 152.012 96.4642 152.125 96.5773C152.239 96.6905 152.303 96.8439 152.303 97.0039C152.303 97.164 152.239 97.3174 152.125 97.4306C152.012 97.5437 151.858 97.6073 151.698 97.6073Z" fill="#F56132"/>
<path d="M175.716 97.6073H155.751C155.591 97.6073 155.437 97.5437 155.323 97.4306C155.21 97.3174 155.146 97.164 155.146 97.0039C155.146 96.8439 155.21 96.6905 155.323 96.5773C155.437 96.4642 155.591 96.4006 155.751 96.4006H175.716C175.877 96.4006 176.031 96.4642 176.144 96.5773C176.257 96.6905 176.321 96.8439 176.321 97.0039C176.321 97.164 176.257 97.3174 176.144 97.4306C176.031 97.5437 175.877 97.6073 175.716 97.6073Z" fill="#FFBC0E"/>
<path d="M158.903 104.757H154.535C154.375 104.757 154.221 104.693 154.107 104.58C153.994 104.467 153.93 104.313 153.93 104.153C153.93 103.993 153.994 103.84 154.107 103.727C154.221 103.614 154.375 103.55 154.535 103.55H158.903C159.064 103.55 159.218 103.614 159.331 103.727C159.445 103.84 159.508 103.993 159.508 104.153C159.508 104.313 159.445 104.467 159.331 104.58C159.218 104.693 159.064 104.757 158.903 104.757Z" fill="#68E1FD"/>
<path d="M175.716 119.044H172.933C172.773 119.044 172.619 118.98 172.505 118.867C172.392 118.754 172.328 118.6 172.328 118.44C172.328 118.28 172.392 118.127 172.505 118.014C172.619 117.901 172.773 117.837 172.933 117.837H175.716C175.877 117.837 176.031 117.901 176.144 118.014C176.258 118.127 176.321 118.28 176.321 118.44C176.321 118.6 176.258 118.754 176.144 118.867C176.031 118.98 175.877 119.044 175.716 119.044Z" fill="white"/>
<path d="M63.6279 58.0226C64.804 58.0226 65.7575 57.0717 65.7575 55.8988C65.7575 54.7259 64.804 53.7751 63.6279 53.7751C62.4517 53.7751 61.4983 54.7259 61.4983 55.8988C61.4983 57.0717 62.4517 58.0226 63.6279 58.0226Z" fill="#F56132"/>
<path d="M63.6279 58.6259C63.0868 58.6271 62.5575 58.4682 62.107 58.1693C61.6565 57.8703 61.305 57.4448 61.0971 56.9466C60.8892 56.4484 60.8342 55.8999 60.939 55.3705C61.0438 54.8411 61.3038 54.3546 61.686 53.9727C62.0682 53.5907 62.5555 53.3303 63.0861 53.2246C63.6167 53.1189 64.1669 53.1726 64.6669 53.3788C65.1669 53.585 65.5944 53.9345 65.8951 54.3831C66.1959 54.8317 66.3564 55.3592 66.3564 55.8988C66.3548 56.6206 66.067 57.3124 65.5558 57.8233C65.0447 58.3342 64.3516 58.6227 63.6279 58.6259ZM63.6279 54.4026C63.3261 54.4014 63.0307 54.4895 62.7792 54.6559C62.5277 54.8222 62.3313 55.0592 62.215 55.337C62.0987 55.6147 62.0676 55.9206 62.1258 56.2159C62.1839 56.5112 62.3286 56.7827 62.5416 56.9959C62.7546 57.2091 63.0262 57.3545 63.3221 57.4137C63.618 57.4729 63.9249 57.4431 64.2038 57.3282C64.4828 57.2133 64.7212 57.0184 64.889 56.7683C65.0568 56.5181 65.1464 56.2239 65.1464 55.923C65.1496 55.7218 65.1127 55.522 65.0379 55.3351C64.9631 55.1483 64.8519 54.9781 64.7106 54.8344C64.5694 54.6907 64.4009 54.5765 64.2151 54.4982C64.0292 54.4199 63.8296 54.3792 63.6279 54.3784V54.4026Z" fill="#093F68"/>
<path d="M72.2188 58.0226C73.395 58.0226 74.3484 57.0717 74.3484 55.8988C74.3484 54.7259 73.395 53.7751 72.2188 53.7751C71.0427 53.7751 70.0892 54.7259 70.0892 55.8988C70.0892 57.0717 71.0427 58.0226 72.2188 58.0226Z" fill="#FFBC0E"/>
<path d="M72.2189 58.6259C71.678 58.6259 71.1493 58.4659 70.6996 58.1663C70.2499 57.8666 69.8994 57.4407 69.6924 56.9424C69.4854 56.4441 69.4313 55.8958 69.5368 55.3668C69.6423 54.8378 69.9028 54.3519 70.2852 53.9705C70.6676 53.5891 71.1549 53.3294 71.6854 53.2242C72.2158 53.1189 72.7657 53.1729 73.2653 53.3793C73.765 53.5857 74.1921 53.9353 74.4926 54.3837C74.7931 54.8322 74.9535 55.3595 74.9535 55.8988C74.9519 56.6216 74.6632 57.3143 74.1507 57.8254C73.6383 58.3365 72.9436 58.6243 72.2189 58.6259ZM72.2189 54.4026C71.9173 54.4026 71.6226 54.4917 71.3718 54.6588C71.1211 54.8259 70.9257 55.0633 70.8103 55.3411C70.6949 55.6189 70.6647 55.9246 70.7235 56.2196C70.7824 56.5145 70.9276 56.7854 71.1408 56.998C71.354 57.2107 71.6257 57.3555 71.9214 57.4141C72.2172 57.4728 72.5237 57.4427 72.8023 57.3276C73.0809 57.2125 73.319 57.0177 73.4865 56.7676C73.654 56.5176 73.7435 56.2237 73.7435 55.923C73.7467 55.7213 73.7096 55.521 73.6344 55.3337C73.5592 55.1464 73.4474 54.976 73.3056 54.8322C73.1637 54.6885 72.9945 54.5743 72.8079 54.4964C72.6214 54.4185 72.4211 54.3784 72.2189 54.3784V54.4026Z" fill="#093F68"/>
<path d="M80.8099 58.0226C81.986 58.0226 82.9395 57.0717 82.9395 55.8988C82.9395 54.7259 81.986 53.7751 80.8099 53.7751C79.6338 53.7751 78.6803 54.7259 78.6803 55.8988C78.6803 57.0717 79.6338 58.0226 80.8099 58.0226Z" fill="#70CC40"/>
<path d="M80.8098 58.6259C80.2689 58.6259 79.7402 58.4659 79.2905 58.1663C78.8408 57.8666 78.4903 57.4407 78.2834 56.9424C78.0764 56.4441 78.0222 55.8958 78.1277 55.3668C78.2333 54.8378 78.4937 54.3519 78.8761 53.9705C79.2586 53.5891 79.7458 53.3294 80.2763 53.2242C80.8068 53.1189 81.3566 53.1729 81.8563 53.3793C82.356 53.5857 82.7831 53.9353 83.0835 54.3837C83.384 54.8322 83.5444 55.3595 83.5444 55.8988C83.5444 56.6221 83.2563 57.3157 82.7435 57.8271C82.2306 58.3386 81.5351 58.6259 80.8098 58.6259ZM80.8098 54.4026C80.5083 54.4026 80.2135 54.4917 79.9628 54.6588C79.7121 54.8259 79.5166 55.0633 79.4012 55.3411C79.2859 55.6189 79.2557 55.9246 79.3145 56.2196C79.3733 56.5145 79.5185 56.7854 79.7317 56.998C79.945 57.2107 80.2166 57.3555 80.5124 57.4141C80.8081 57.4728 81.1147 57.4427 81.3932 57.3276C81.6718 57.2125 81.9099 57.0177 82.0775 56.7676C82.245 56.5176 82.3344 56.2237 82.3344 55.923C82.3384 55.7211 82.3019 55.5204 82.227 55.3328C82.1522 55.1451 82.0404 54.9743 81.8983 54.8304C81.7563 54.6865 81.5868 54.5724 81.3999 54.4948C81.2129 54.4171 81.0123 54.3776 80.8098 54.3784V54.4026Z" fill="#093F68"/>
<path d="M74.415 120.944C74.1579 120.691 73.9592 120.385 73.8328 120.047C73.7064 119.71 73.6552 119.349 73.683 118.989V114.633C73.7304 114.235 73.6197 113.835 73.3744 113.517C73.0221 113.272 72.5906 113.166 72.1644 113.222V111.104C72.5904 111.156 73.0209 111.051 73.3744 110.808C73.6183 110.488 73.7288 110.086 73.683 109.686V105.354C73.6565 104.995 73.7082 104.634 73.8345 104.297C73.9609 103.959 74.1589 103.653 74.415 103.399C74.9362 102.947 75.6121 102.711 76.3026 102.742H77.6276V104.859H77.2464C77.0714 104.845 76.8955 104.871 76.7319 104.935C76.5684 104.998 76.4216 105.099 76.3026 105.227C76.0569 105.615 75.9483 106.074 75.9941 106.531V110.066C76.0448 110.526 75.927 110.989 75.6623 111.369C75.3977 111.75 75.0041 112.022 74.5542 112.136V112.22C75.004 112.336 75.3969 112.61 75.6613 112.991C75.9256 113.372 76.0437 113.835 75.9941 114.295V117.825C75.9488 118.283 76.0573 118.744 76.3026 119.134C76.4227 119.261 76.5698 119.36 76.7332 119.422C76.8966 119.485 77.072 119.51 77.2464 119.496H77.6276V121.62H76.3026C75.6096 121.646 74.9335 121.403 74.415 120.944Z" fill="#093F68"/>
<path d="M88.7353 103.942H90.9799L84.464 120.431H82.2195L88.7353 103.942Z" fill="#093F68"/>
<path d="M95.59 119.46H95.9651C96.1395 119.474 96.3149 119.449 96.4783 119.386C96.6417 119.324 96.7888 119.225 96.9089 119.098C97.1542 118.708 97.2627 118.247 97.2174 117.789V114.259C97.1747 113.81 97.2911 113.36 97.5464 112.988C97.8017 112.615 98.1798 112.343 98.615 112.22V112.172C98.165 112.058 97.7714 111.786 97.5068 111.406C97.2422 111.025 97.1244 110.562 97.1751 110.102V106.567C97.2208 106.11 97.1122 105.652 96.8665 105.264C96.7476 105.135 96.6008 105.035 96.4372 104.971C96.2737 104.907 96.0977 104.881 95.9227 104.896H95.59V102.778H96.9089C97.5994 102.747 98.2752 102.983 98.7965 103.435C99.0526 103.689 99.2506 103.996 99.377 104.333C99.5033 104.67 99.555 105.031 99.5285 105.39V109.722C99.4827 110.122 99.5932 110.524 99.8371 110.844C100.191 111.087 100.621 111.192 101.047 111.14V113.258C100.621 113.202 100.189 113.308 99.8371 113.553C99.5918 113.871 99.481 114.272 99.5285 114.67V119.001C99.5563 119.361 99.5051 119.722 99.3787 120.059C99.2523 120.397 99.0536 120.703 98.7965 120.956C98.2762 121.411 97.6002 121.649 96.9089 121.62H95.59V119.46Z" fill="#093F68"/>
<path d="M98.6876 66.9398H50.0093C48.5258 66.9398 47.3231 68.1392 47.3231 69.6186V93.3176C47.3231 94.797 48.5258 95.9964 50.0093 95.9964H98.6876C100.171 95.9964 101.374 94.797 101.374 93.3176V69.6186C101.374 68.1392 100.171 66.9398 98.6876 66.9398Z" fill="white"/>
<path d="M98.6876 96.5997H50.0033C49.1325 96.5981 48.2978 96.2524 47.6821 95.6384C47.0664 95.0243 46.7197 94.192 46.7181 93.3236V69.6186C46.7261 68.7544 47.0755 67.9283 47.6906 67.3194C48.3056 66.7106 49.1367 66.3682 50.0033 66.3667H98.6876C99.5595 66.3683 100.395 66.7148 101.011 67.3301C101.627 67.9455 101.973 68.7794 101.973 69.6488V93.3538C101.963 94.2169 101.613 95.0416 100.998 95.6491C100.383 96.2566 99.5532 96.5982 98.6876 96.5997ZM50.0033 67.5733C49.4524 67.5749 48.9246 67.7943 48.5356 68.1834C48.1466 68.5724 47.9281 69.0994 47.9281 69.6488V93.3538C47.9297 93.9021 48.1489 94.4276 48.5377 94.8153C48.9265 95.2031 49.4534 95.4216 50.0033 95.4232H98.6876C99.2375 95.4216 99.7644 95.2031 100.153 94.8153C100.542 94.4276 100.761 93.9021 100.763 93.3538V69.6186C100.763 69.0692 100.544 68.5422 100.155 68.1532C99.7664 67.7641 99.2386 67.5448 98.6876 67.5432L50.0033 67.5733Z" fill="#093F68"/>
<path d="M66.9191 79.5314C66.6338 79.1837 66.2713 78.9069 65.8603 78.7229C65.384 78.5328 64.8747 78.4386 64.3617 78.4459C63.8488 78.4531 63.3423 78.5616 62.8716 78.7652C62.4107 78.9735 61.9986 79.2756 61.6616 79.6521C61.3061 80.0482 61.0308 80.5091 60.8509 81.0096C60.6537 81.5571 60.5554 82.1352 60.5605 82.717C60.5534 83.3009 60.6517 83.8813 60.8509 84.4305C61.0302 84.9267 61.301 85.3851 61.6495 85.7819C61.9881 86.1582 62.3997 86.462 62.8595 86.6749C63.3226 86.8859 63.8266 86.993 64.3357 86.9886C64.8914 87.0022 65.4414 86.8734 65.9329 86.6145C66.3985 86.3665 66.7938 86.0054 67.0824 85.5647L69.5024 87.3747C68.9618 88.1389 68.2209 88.74 67.3607 89.1123C66.5192 89.4866 65.608 89.6798 64.6866 89.6795C63.7071 89.6892 62.7338 89.5237 61.8129 89.1908C60.9665 88.8844 60.1923 88.408 59.5381 87.791C58.8896 87.1704 58.3803 86.4199 58.0437 85.5889C57.3337 83.7314 57.3337 81.6784 58.0437 79.821C58.3803 78.99 58.8896 78.2394 59.5381 77.6188C60.1923 77.0019 60.9665 76.5255 61.8129 76.2191C62.7338 75.8862 63.7071 75.7206 64.6866 75.7304C65.0921 75.7312 65.4968 75.7655 65.8966 75.833C66.3097 75.9046 66.7149 76.0157 67.1066 76.1648C67.5086 76.3198 67.8904 76.5224 68.244 76.7681C68.6132 77.0253 68.9433 77.3341 69.2241 77.6852L66.9191 79.5314Z" fill="#093F68"/>
<path d="M77.6699 79.3263C77.4184 79.015 77.0824 78.7825 76.7019 78.6566C76.331 78.5231 75.9406 78.4518 75.5464 78.4454C75.3246 78.4466 75.1036 78.4709 74.8869 78.5178C74.6753 78.5681 74.4718 78.6472 74.2819 78.7531C74.0887 78.8551 73.9211 78.9995 73.7919 79.1754C73.6327 79.4205 73.5712 79.7161 73.6193 80.004C73.6675 80.292 73.8218 80.5517 74.052 80.732C74.4032 80.9663 74.7862 81.1492 75.1894 81.2751C75.6492 81.4259 76.1393 81.5767 76.6656 81.7215C77.1841 81.8682 77.6805 82.0833 78.1418 82.361C78.5998 82.6386 78.9886 83.0161 79.2792 83.4651C79.6078 84.0277 79.7654 84.6732 79.733 85.3234C79.7488 85.9908 79.6057 86.6525 79.3155 87.2541C79.0534 87.7906 78.6703 88.2594 78.1963 88.6236C77.7096 88.995 77.1546 89.2676 76.5628 89.4261C75.9228 89.6049 75.2611 89.6942 74.5965 89.6915C73.7727 89.7009 72.9537 89.5661 72.1765 89.2933C71.4064 89.0153 70.7021 88.5819 70.1074 88.0203L72.1947 85.7337C72.4914 86.132 72.8821 86.4511 73.3321 86.6628C73.7733 86.8764 74.2573 86.9878 74.7478 86.9886C74.9923 86.9903 75.2362 86.9619 75.4738 86.9041C75.7055 86.8545 75.928 86.769 76.1332 86.6507C76.3208 86.5474 76.4806 86.4005 76.5991 86.2224C76.7194 86.0442 76.7827 85.8338 76.7806 85.619C76.7875 85.4366 76.7491 85.2552 76.6689 85.091C76.5887 84.9268 76.4691 84.7849 76.3208 84.6779C75.9691 84.4184 75.5793 84.2149 75.1652 84.0745C74.6974 83.9096 74.1952 83.7467 73.6588 83.5858C73.1331 83.43 72.629 83.209 72.1584 82.9282C71.6946 82.6595 71.2992 82.2879 71.0028 81.8422C70.6727 81.3089 70.5124 80.6883 70.543 80.0623C70.5229 79.4408 70.6531 78.8235 70.9227 78.2627C71.1923 77.7019 71.5933 77.2141 72.0918 76.8405C72.5782 76.4681 73.1302 76.1898 73.7193 76.02C74.3341 75.839 74.9719 75.7476 75.6129 75.7485C76.3528 75.7473 77.0887 75.855 77.797 76.0683C78.4995 76.2805 79.1462 76.6452 79.6906 77.1362L77.6699 79.3263Z" fill="#093F68"/>
<path d="M88.4571 79.3263C88.2056 79.015 87.8695 78.7825 87.4891 78.6566C87.1182 78.5231 86.7277 78.4518 86.3335 78.4454C86.1118 78.4466 85.8908 78.4709 85.6741 78.5178C85.4521 78.5653 85.2381 78.6446 85.0388 78.7531C84.8455 78.8551 84.678 78.9995 84.5488 79.1754C84.3889 79.4208 84.3275 79.7172 84.3769 80.0056C84.4262 80.294 84.5826 80.5534 84.815 80.732C85.1633 80.9675 85.5445 81.1504 85.9463 81.275C86.4061 81.4259 86.8962 81.5767 87.4225 81.7215C87.9413 81.8672 88.4379 82.0823 88.8987 82.361C89.3567 82.6386 89.7455 83.0161 90.0361 83.4651C90.3647 84.0276 90.5223 84.6732 90.4899 85.3234C90.5057 85.9908 90.3626 86.6524 90.0724 87.2541C89.8103 87.7906 89.4272 88.2593 88.9532 88.6236C88.4665 88.995 87.9115 89.2676 87.3197 89.4261C86.6817 89.6045 86.022 89.6938 85.3595 89.6915C84.5357 89.7007 83.7166 89.566 82.9395 89.2933C82.1694 89.0153 81.465 88.5819 80.8704 88.0203L82.9576 85.7337C83.2543 86.1319 83.645 86.4511 84.095 86.6628C84.5384 86.8765 85.0243 86.9878 85.5168 86.9886C85.7593 86.99 86.0011 86.9616 86.2367 86.9041C86.4688 86.8556 86.6915 86.77 86.8962 86.6507C87.0844 86.546 87.2458 86.3994 87.3681 86.2224C87.5183 85.9717 87.5723 85.6752 87.52 85.3878C87.4677 85.1005 87.3127 84.8418 87.0837 84.6597C86.733 84.3989 86.3429 84.1952 85.9282 84.0564C85.4603 83.8915 84.9581 83.7286 84.4217 83.5677C83.896 83.4118 83.3919 83.1909 82.9213 82.9101C82.4587 82.6398 82.0637 82.2685 81.7658 81.8241C81.4357 81.2907 81.2754 80.6702 81.306 80.0442C81.2893 79.4232 81.4211 78.8071 81.6904 78.2469C81.9597 77.6867 82.3588 77.1984 82.8548 76.8224C83.3411 76.45 83.8931 76.1717 84.4822 76.0019C85.097 75.8209 85.7348 75.7295 86.3759 75.7304C87.1157 75.7292 87.8517 75.8369 88.5599 76.0502C89.2637 76.2636 89.9121 76.6281 90.4596 77.1181L88.4571 79.3263Z" fill="#093F68"/>
<path d="M100.739 72.1285H47.3231C47.1627 72.1285 47.0088 72.0649 46.8953 71.9518C46.7819 71.8387 46.7181 71.6852 46.7181 71.5252C46.7181 71.3652 46.7819 71.2117 46.8953 71.0986C47.0088 70.9854 47.1627 70.9218 47.3231 70.9218H100.739C100.899 70.9218 101.053 70.9854 101.166 71.0986C101.28 71.2117 101.344 71.3652 101.344 71.5252C101.344 71.6852 101.28 71.8387 101.166 71.9518C101.053 72.0649 100.899 72.1285 100.739 72.1285Z" fill="#093F68"/>
</svg>
